<?xml version='1.0' encoding='UTF-8'?>
<svg width="49mm" height="49mm" version="1.1" viewBox="0 0 49 49" xmlns="http://www.w3.org/2000/svg"><path d="M4,4H5V5H4zM5,4H6V5H5zM6,4H7V5H6zM7,4H8V5H7zM8,4H9V5H8zM9,4H10V5H9zM10,4H11V5H10zM12,4H13V5H12zM15,4H16V5H15zM17,4H18V5H17zM20,4H21V5H20zM21,4H22V5H21zM23,4H24V5H23zM24,4H25V5H24zM29,4H30V5H29zM30,4H31V5H30zM32,4H33V5H32zM35,4H36V5H35zM36,4H37V5H36zM38,4H39V5H38zM39,4H40V5H39zM40,4H41V5H40zM41,4H42V5H41zM42,4H43V5H42zM43,4H44V5H43zM44,4H45V5H44zM4,5H5V6H4zM10,5H11V6H10zM12,5H13V6H12zM17,5H18V6H17zM18,5H19V6H18zM19,5H20V6H19zM20,5H21V6H20zM21,5H22V6H21zM23,5H24V6H23zM24,5H25V6H24zM26,5H27V6H26zM27,5H28V6H27zM28,5H29V6H28zM30,5H31V6H30zM31,5H32V6H31zM32,5H33V6H32zM34,5H35V6H34zM38,5H39V6H38zM44,5H45V6H44zM4,6H5V7H4zM6,6H7V7H6zM7,6H8V7H7zM8,6H9V7H8zM10,6H11V7H10zM12,6H13V7H12zM13,6H14V7H13zM14,6H15V7H14zM16,6H17V7H16zM17,6H18V7H17zM18,6H19V7H18zM19,6H20V7H19zM20,6H21V7H20zM21,6H22V7H21zM23,6H24V7H23zM27,6H28V7H27zM28,6H29V7H28zM34,6H35V7H34zM38,6H39V7H38zM40,6H41V7H40zM41,6H42V7H41zM42,6H43V7H42zM44,6H45V7H44zM4,7H5V8H4zM6,7H7V8H6zM7,7H8V8H7zM8,7H9V8H8zM10,7H11V8H10zM15,7H16V8H15zM17,7H18V8H17zM18,7H19V8H18zM21,7H22V8H21zM22,7H23V8H22zM24,7H25V8H24zM25,7H26V8H25zM26,7H27V8H26zM27,7H28V8H27zM32,7H33V8H32zM33,7H34V8H33zM34,7H35V8H34zM38,7H39V8H38zM40,7H41V8H40zM41,7H42V8H41zM42,7H43V8H42zM44,7H45V8H44zM4,8H5V9H4zM6,8H7V9H6zM7,8H8V9H7zM8,8H9V9H8zM10,8H11V9H10zM13,8H14V9H13zM14,8H15V9H14zM16,8H17V9H16zM18,8H19V9H18zM20,8H21V9H20zM22,8H23V9H22zM23,8H24V9H23zM26,8H27V9H26zM32,8H33V9H32zM34,8H35V9H34zM35,8H36V9H35zM36,8H37V9H36zM38,8H39V9H38zM40,8H41V9H40zM41,8H42V9H41zM42,8H43V9H42zM44,8H45V9H44zM4,9H5V10H4zM10,9H11V10H10zM12,9H13V10H12zM13,9H14V10H13zM14,9H15V10H14zM15,9H16V10H15zM21,9H22V10H21zM22,9H23V10H22zM25,9H26V10H25zM26,9H27V10H26zM30,9H31V10H30zM31,9H32V10H31zM32,9H33V10H32zM33,9H34V10H33zM38,9H39V10H38zM44,9H45V10H44zM4,10H5V11H4zM5,10H6V11H5zM6,10H7V11H6zM7,10H8V11H7zM8,10H9V11H8zM9,10H10V11H9zM10,10H11V11H10zM12,10H13V11H12zM14,10H15V11H14zM16,10H17V11H16zM18,10H19V11H18zM20,10H21V11H20zM22,10H23V11H22zM24,10H25V11H24zM26,10H27V11H26zM28,10H29V11H28zM30,10H31V11H30zM32,10H33V11H32zM34,10H35V11H34zM36,10H37V11H36zM38,10H39V11H38zM39,10H40V11H39zM40,10H41V11H40zM41,10H42V11H41zM42,10H43V11H42zM43,10H44V11H43zM44,10H45V11H44zM12,11H13V12H12zM14,11H15V12H14zM15,11H16V12H15zM18,11H19V12H18zM20,11H21V12H20zM21,11H22V12H21zM23,11H24V12H23zM24,11H25V12H24zM26,11H27V12H26zM27,11H28V12H27zM28,11H29V12H28zM29,11H30V12H29zM30,11H31V12H30zM31,11H32V12H31zM36,11H37V12H36zM6,12H7V13H6zM7,12H8V13H7zM8,12H9V13H8zM10,12H11V13H10zM12,12H13V13H12zM13,12H14V13H13zM15,12H16V13H15zM16,12H17V13H16zM17,12H18V13H17zM22,12H23V13H22zM25,12H26V13H25zM28,12H29V13H28zM29,12H30V13H29zM33,12H34V13H33zM36,12H37V13H36zM37,12H38V13H37zM38,12H39V13H38zM39,12H40V13H39zM42,12H43V13H42zM43,12H44V13H43zM44,12H45V13H44zM4,13H5V14H4zM5,13H6V14H5zM6,13H7V14H6zM7,13H8V14H7zM8,13H9V14H8zM9,13H10V14H9zM11,13H12V14H11zM17,13H18V14H17zM18,13H19V14H18zM19,13H20V14H19zM21,13H22V14H21zM22,13H23V14H22zM23,13H24V14H23zM24,13H25V14H24zM28,13H29V14H28zM29,13H30V14H29zM32,13H33V14H32zM33,13H34V14H33zM34,13H35V14H34zM35,13H36V14H35zM36,13H37V14H36zM37,13H38V14H37zM38,13H39V14H38zM39,13H40V14H39zM40,13H41V14H40zM42,13H43V14H42zM43,13H44V14H43zM44,13H45V14H44zM10,14H11V15H10zM11,14H12V15H11zM12,14H13V15H12zM13,14H14V15H13zM16,14H17V15H16zM18,14H19V15H18zM20,14H21V15H20zM23,14H24V15H23zM26,14H27V15H26zM27,14H28V15H27zM28,14H29V15H28zM30,14H31V15H30zM31,14H32V15H31zM33,14H34V15H33zM36,14H37V15H36zM38,14H39V15H38zM39,14H40V15H39zM40,14H41V15H40zM4,15H5V16H4zM5,15H6V16H5zM6,15H7V16H6zM8,15H9V16H8zM11,15H12V16H11zM12,15H13V16H12zM13,15H14V16H13zM14,15H15V16H14zM17,15H18V16H17zM23,15H24V16H23zM26,15H27V16H26zM28,15H29V16H28zM29,15H30V16H29zM31,15H32V16H31zM35,15H36V16H35zM36,15H37V16H36zM38,15H39V16H38zM41,15H42V16H41zM4,16H5V17H4zM5,16H6V17H5zM7,16H8V17H7zM8,16H9V17H8zM9,16H10V17H9zM10,16H11V17H10zM12,16H13V17H12zM17,16H18V17H17zM20,16H21V17H20zM24,16H25V17H24zM28,16H29V17H28zM33,16H34V17H33zM35,16H36V17H35zM36,16H37V17H36zM41,16H42V17H41zM42,16H43V17H42zM43,16H44V17H43zM44,16H45V17H44zM7,17H8V18H7zM9,17H10V18H9zM12,17H13V18H12zM13,17H14V18H13zM16,17H17V18H16zM19,17H20V18H19zM21,17H22V18H21zM22,17H23V18H22zM24,17H25V18H24zM26,17H27V18H26zM28,17H29V18H28zM32,17H33V18H32zM34,17H35V18H34zM35,17H36V18H35zM36,17H37V18H36zM39,17H40V18H39zM40,17H41V18H40zM44,17H45V18H44zM4,18H5V19H4zM5,18H6V19H5zM6,18H7V19H6zM10,18H11V19H10zM13,18H14V19H13zM15,18H16V19H15zM16,18H17V19H16zM17,18H18V19H17zM18,18H19V19H18zM23,18H24V19H23zM27,18H28V19H27zM28,18H29V19H28zM30,18H31V19H30zM31,18H32V19H31zM32,18H33V19H32zM34,18H35V19H34zM37,18H38V19H37zM39,18H40V19H39zM6,19H7V20H6zM12,19H13V20H12zM13,19H14V20H13zM14,19H15V20H14zM16,19H17V20H16zM18,19H19V20H18zM20,19H21V20H20zM22,19H23V20H22zM23,19H24V20H23zM24,19H25V20H24zM25,19H26V20H25zM28,19H29V20H28zM31,19H32V20H31zM32,19H33V20H32zM34,19H35V20H34zM38,19H39V20H38zM41,19H42V20H41zM43,19H44V20H43zM5,20H6V21H5zM10,20H11V21H10zM11,20H12V21H11zM12,20H13V21H12zM13,20H14V21H13zM17,20H18V21H17zM18,20H19V21H18zM21,20H22V21H21zM24,20H25V21H24zM29,20H30V21H29zM33,20H34V21H33zM34,20H35V21H34zM36,20H37V21H36zM37,20H38V21H37zM39,20H40V21H39zM42,20H43V21H42zM43,20H44V21H43zM44,20H45V21H44zM4,21H5V22H4zM6,21H7V22H6zM7,21H8V22H7zM8,21H9V22H8zM11,21H12V22H11zM13,21H14V22H13zM14,21H15V22H14zM15,21H16V22H15zM17,21H18V22H17zM20,21H21V22H20zM26,21H27V22H26zM27,21H28V22H27zM29,21H30V22H29zM30,21H31V22H30zM32,21H33V22H32zM33,21H34V22H33zM34,21H35V22H34zM35,21H36V22H35zM36,21H37V22H36zM38,21H39V22H38zM39,21H40V22H39zM40,21H41V22H40zM41,21H42V22H41zM44,21H45V22H44zM8,22H9V23H8zM9,22H10V23H9zM10,22H11V23H10zM11,22H12V23H11zM12,22H13V23H12zM13,22H14V23H13zM14,22H15V23H14zM17,22H18V23H17zM19,22H20V23H19zM20,22H21V23H20zM23,22H24V23H23zM24,22H25V23H24zM25,22H26V23H25zM28,22H29V23H28zM30,22H31V23H30zM31,22H32V23H31zM32,22H33V23H32zM33,22H34V23H33zM36,22H37V23H36zM37,22H38V23H37zM38,22H39V23H38zM40,22H41V23H40zM41,22H42V23H41zM4,23H5V24H4zM6,23H7V24H6zM7,23H8V24H7zM8,23H9V24H8zM11,23H12V24H11zM14,23H15V24H14zM15,23H16V24H15zM16,23H17V24H16zM17,23H18V24H17zM20,23H21V24H20zM21,23H22V24H21zM23,23H24V24H23zM24,23H25V24H24zM25,23H26V24H25zM26,23H27V24H26zM28,23H29V24H28zM29,23H30V24H29zM31,23H32V24H31zM34,23H35V24H34zM37,23H38V24H37zM40,23H41V24H40zM41,23H42V24H41zM43,23H44V24H43zM4,24H5V25H4zM5,24H6V25H5zM6,24H7V25H6zM7,24H8V25H7zM8,24H9V25H8zM9,24H10V25H9zM10,24H11V25H10zM13,24H14V25H13zM17,24H18V25H17zM18,24H19V25H18zM19,24H20V25H19zM22,24H23V25H22zM24,24H25V25H24zM26,24H27V25H26zM27,24H28V25H27zM29,24H30V25H29zM30,24H31V25H30zM31,24H32V25H31zM33,24H34V25H33zM36,24H37V25H36zM42,24H43V25H42zM4,25H5V26H4zM5,25H6V26H5zM6,25H7V26H6zM8,25H9V26H8zM9,25H10V26H9zM12,25H13V26H12zM13,25H14V26H13zM17,25H18V26H17zM20,25H21V26H20zM24,25H25V26H24zM28,25H29V26H28zM30,25H31V26H30zM32,25H33V26H32zM34,25H35V26H34zM35,25H36V26H35zM36,25H37V26H36zM38,25H39V26H38zM39,25H40V26H39zM40,25H41V26H40zM41,25H42V26H41zM42,25H43V26H42zM43,25H44V26H43zM44,25H45V26H44zM5,26H6V27H5zM6,26H7V27H6zM8,26H9V27H8zM9,26H10V27H9zM10,26H11V27H10zM12,26H13V27H12zM14,26H15V27H14zM15,26H16V27H15zM16,26H17V27H16zM20,26H21V27H20zM21,26H22V27H21zM22,26H23V27H22zM23,26H24V27H23zM24,26H25V27H24zM25,26H26V27H25zM28,26H29V27H28zM29,26H30V27H29zM31,26H32V27H31zM32,26H33V27H32zM34,26H35V27H34zM38,26H39V27H38zM39,26H40V27H39zM42,26H43V27H42zM7,27H8V28H7zM8,27H9V28H8zM12,27H13V28H12zM15,27H16V28H15zM19,27H20V28H19zM22,27H23V28H22zM24,27H25V28H24zM25,27H26V28H25zM26,27H27V28H26zM28,27H29V28H28zM30,27H31V28H30zM32,27H33V28H32zM35,27H36V28H35zM36,27H37V28H36zM38,27H39V28H38zM39,27H40V28H39zM40,27H41V28H40zM43,27H44V28H43zM44,27H45V28H44zM4,28H5V29H4zM5,28H6V29H5zM8,28H9V29H8zM10,28H11V29H10zM12,28H13V29H12zM13,28H14V29H13zM14,28H15V29H14zM15,28H16V29H15zM16,28H17V29H16zM18,28H19V29H18zM19,28H20V29H19zM22,28H23V29H22zM24,28H25V29H24zM25,28H26V29H25zM26,28H27V29H26zM29,28H30V29H29zM30,28H31V29H30zM31,28H32V29H31zM33,28H34V29H33zM35,28H36V29H35zM37,28H38V29H37zM42,28H43V29H42zM43,28H44V29H43zM44,28H45V29H44zM7,29H8V30H7zM9,29H10V30H9zM12,29H13V30H12zM16,29H17V30H16zM18,29H19V30H18zM27,29H28V30H27zM32,29H33V30H32zM34,29H35V30H34zM35,29H36V30H35zM37,29H38V30H37zM38,29H39V30H38zM39,29H40V30H39zM40,29H41V30H40zM41,29H42V30H41zM43,29H44V30H43zM44,29H45V30H44zM5,30H6V31H5zM6,30H7V31H6zM10,30H11V31H10zM11,30H12V31H11zM12,30H13V31H12zM14,30H15V31H14zM16,30H17V31H16zM17,30H18V31H17zM18,30H19V31H18zM19,30H20V31H19zM20,30H21V31H20zM21,30H22V31H21zM22,30H23V31H22zM23,30H24V31H23zM24,30H25V31H24zM26,30H27V31H26zM29,30H30V31H29zM31,30H32V31H31zM32,30H33V31H32zM36,30H37V31H36zM38,30H39V31H38zM5,31H6V32H5zM6,31H7V32H6zM11,31H12V32H11zM13,31H14V32H13zM14,31H15V32H14zM16,31H17V32H16zM17,31H18V32H17zM18,31H19V32H18zM19,31H20V32H19zM20,31H21V32H20zM23,31H24V32H23zM24,31H25V32H24zM25,31H26V32H25zM26,31H27V32H26zM27,31H28V32H27zM29,31H30V32H29zM30,31H31V32H30zM34,31H35V32H34zM35,31H36V32H35zM36,31H37V32H36zM38,31H39V32H38zM39,31H40V32H39zM41,31H42V32H41zM44,31H45V32H44zM6,32H7V33H6zM9,32H10V33H9zM10,32H11V33H10zM11,32H12V33H11zM12,32H13V33H12zM13,32H14V33H13zM15,32H16V33H15zM16,32H17V33H16zM17,32H18V33H17zM18,32H19V33H18zM19,32H20V33H19zM20,32H21V33H20zM21,32H22V33H21zM23,32H24V33H23zM24,32H25V33H24zM25,32H26V33H25zM28,32H29V33H28zM30,32H31V33H30zM31,32H32V33H31zM33,32H34V33H33zM34,32H35V33H34zM35,32H36V33H35zM36,32H37V33H36zM41,32H42V33H41zM42,32H43V33H42zM43,32H44V33H43zM4,33H5V34H4zM7,33H8V34H7zM8,33H9V34H8zM12,33H13V34H12zM18,33H19V34H18zM19,33H20V34H19zM20,33H21V34H20zM21,33H22V34H21zM24,33H25V34H24zM26,33H27V34H26zM28,33H29V34H28zM30,33H31V34H30zM32,33H33V34H32zM33,33H34V34H33zM34,33H35V34H34zM35,33H36V34H35zM36,33H37V34H36zM37,33H38V34H37zM38,33H39V34H38zM39,33H40V34H39zM40,33H41V34H40zM41,33H42V34H41zM42,33H43V34H42zM43,33H44V34H43zM44,33H45V34H44zM4,34H5V35H4zM6,34H7V35H6zM7,34H8V35H7zM9,34H10V35H9zM10,34H11V35H10zM11,34H12V35H11zM12,34H13V35H12zM13,34H14V35H13zM15,34H16V35H15zM16,34H17V35H16zM18,34H19V35H18zM19,34H20V35H19zM20,34H21V35H20zM21,34H22V35H21zM22,34H23V35H22zM26,34H27V35H26zM28,34H29V35H28zM30,34H31V35H30zM31,34H32V35H31zM36,34H37V35H36zM37,34H38V35H37zM38,34H39V35H38zM39,34H40V35H39zM41,34H42V35H41zM42,34H43V35H42zM4,35H5V36H4zM7,35H8V36H7zM9,35H10V36H9zM12,35H13V36H12zM13,35H14V36H13zM14,35H15V36H14zM15,35H16V36H15zM16,35H17V36H16zM17,35H18V36H17zM19,35H20V36H19zM21,35H22V36H21zM24,35H25V36H24zM25,35H26V36H25zM26,35H27V36H26zM27,35H28V36H27zM28,35H29V36H28zM29,35H30V36H29zM30,35H31V36H30zM31,35H32V36H31zM32,35H33V36H32zM37,35H38V36H37zM38,35H39V36H38zM39,35H40V36H39zM41,35H42V36H41zM43,35H44V36H43zM4,36H5V37H4zM6,36H7V37H6zM7,36H8V37H7zM10,36H11V37H10zM13,36H14V37H13zM14,36H15V37H14zM17,36H18V37H17zM22,36H23V37H22zM23,36H24V37H23zM27,36H28V37H27zM28,36H29V37H28zM31,36H32V37H31zM33,36H34V37H33zM36,36H37V37H36zM37,36H38V37H37zM38,36H39V37H38zM39,36H40V37H39zM40,36H41V37H40zM42,36H43V37H42zM12,37H13V38H12zM14,37H15V38H14zM15,37H16V38H15zM17,37H18V38H17zM19,37H20V38H19zM20,37H21V38H20zM22,37H23V38H22zM25,37H26V38H25zM26,37H27V38H26zM27,37H28V38H27zM28,37H29V38H28zM30,37H31V38H30zM32,37H33V38H32zM33,37H34V38H33zM36,37H37V38H36zM40,37H41V38H40zM44,37H45V38H44zM4,38H5V39H4zM5,38H6V39H5zM6,38H7V39H6zM7,38H8V39H7zM8,38H9V39H8zM9,38H10V39H9zM10,38H11V39H10zM13,38H14V39H13zM14,38H15V39H14zM18,38H19V39H18zM24,38H25V39H24zM25,38H26V39H25zM28,38H29V39H28zM30,38H31V39H30zM31,38H32V39H31zM34,38H35V39H34zM35,38H36V39H35zM36,38H37V39H36zM38,38H39V39H38zM40,38H41V39H40zM42,38H43V39H42zM4,39H5V40H4zM10,39H11V40H10zM14,39H15V40H14zM15,39H16V40H15zM16,39H17V40H16zM18,39H19V40H18zM19,39H20V40H19zM21,39H22V40H21zM24,39H25V40H24zM25,39H26V40H25zM27,39H28V40H27zM28,39H29V40H28zM29,39H30V40H29zM31,39H32V40H31zM32,39H33V40H32zM34,39H35V40H34zM35,39H36V40H35zM36,39H37V40H36zM40,39H41V40H40zM4,40H5V41H4zM6,40H7V41H6zM7,40H8V41H7zM8,40H9V41H8zM10,40H11V41H10zM12,40H13V41H12zM14,40H15V41H14zM19,40H20V41H19zM20,40H21V41H20zM23,40H24V41H23zM25,40H26V41H25zM26,40H27V41H26zM29,40H30V41H29zM30,40H31V41H30zM31,40H32V41H31zM33,40H34V41H33zM36,40H37V41H36zM37,40H38V41H37zM38,40H39V41H38zM39,40H40V41H39zM40,40H41V41H40zM42,40H43V41H42zM43,40H44V41H43zM4,41H5V42H4zM6,41H7V42H6zM7,41H8V42H7zM8,41H9V42H8zM10,41H11V42H10zM12,41H13V42H12zM13,41H14V42H13zM14,41H15V42H14zM16,41H17V42H16zM17,41H18V42H17zM18,41H19V42H18zM20,41H21V42H20zM21,41H22V42H21zM24,41H25V42H24zM26,41H27V42H26zM27,41H28V42H27zM29,41H30V42H29zM30,41H31V42H30zM32,41H33V42H32zM33,41H34V42H33zM35,41H36V42H35zM36,41H37V42H36zM37,41H38V42H37zM39,41H40V42H39zM41,41H42V42H41zM42,41H43V42H42zM44,41H45V42H44zM4,42H5V43H4zM6,42H7V43H6zM7,42H8V43H7zM8,42H9V43H8zM10,42H11V43H10zM12,42H13V43H12zM15,42H16V43H15zM16,42H17V43H16zM18,42H19V43H18zM20,42H21V43H20zM21,42H22V43H21zM24,42H25V43H24zM25,42H26V43H25zM26,42H27V43H26zM28,42H29V43H28zM31,42H32V43H31zM33,42H34V43H33zM35,42H36V43H35zM36,42H37V43H36zM37,42H38V43H37zM38,42H39V43H38zM39,42H40V43H39zM40,42H41V43H40zM41,42H42V43H41zM42,42H43V43H42zM43,42H44V43H43zM4,43H5V44H4zM10,43H11V44H10zM15,43H16V44H15zM18,43H19V44H18zM20,43H21V44H20zM21,43H22V44H21zM23,43H24V44H23zM24,43H25V44H24zM25,43H26V44H25zM26,43H27V44H26zM29,43H30V44H29zM30,43H31V44H30zM32,43H33V44H32zM34,43H35V44H34zM36,43H37V44H36zM40,43H41V44H40zM41,43H42V44H41zM43,43H44V44H43zM4,44H5V45H4zM5,44H6V45H5zM6,44H7V45H6zM7,44H8V45H7zM8,44H9V45H8zM9,44H10V45H9zM10,44H11V45H10zM13,44H14V45H13zM14,44H15V45H14zM17,44H18V45H17zM18,44H19V45H18zM19,44H20V45H19zM20,44H21V45H20zM21,44H22V45H21zM27,44H28V45H27zM28,44H29V45H28zM29,44H30V45H29zM33,44H34V45H33zM35,44H36V45H35zM39,44H40V45H39zM40,44H41V45H40zM42,44H43V45H42z" id="qr-path" fill="#000000" fill-opacity="1" fill-rule="nonzero" stroke="none" /></svg>